# xmcd
#
# Track frame offsets:
# 150
# 12833
# 29553
# 50694
# 65749
# 90022
# 105844
# 120763
# 138872
# 155529
# 171723
# 185709
# 206227
# 225012
# 238458
# 252300
# 273378
# 292210
# 308361
# 324445
#
# Disc length: 4570 seconds
#
#
# Revision: 0
# Processed by: cddbd v1.5.1PL2 Copyright (c) Steve Scherf et al.
# Submitted via: FreeRIP 2.945 
#
DISCID=1611d814
DTITLE=Joao Paulo e Daniel - As 20 mais
DYEAR=1900
DGENRE=Sertanejo
TTITLE0=o cheiro dela
TTITLE1=Louco de desejo
TTITLE2=Estou apaixonado
TTITLE3=No mesmo lugar
TTITLE4=Te amo cada vez mais
TTITLE5=Eu me amarrei
TTITLE6=Ta faltando amor
TTITLE7=Olhos claros
TTITLE8=Dia de visita
TTITLE9=A loira do carro branco
TTITLE10=So voce me faz feliz
TTITLE11=Feri seu coracao
TTITLE12=Nelore valente
TTITLE13=Aos trancos e barrancos
TTITLE14=So da voce em minha vida
TTITLE15=Hoje eu sei
TTITLE16=Minha estrela perdida
TTITLE17=Rosto molhado
TTITLE18=Alguem
TTITLE19=Ela tem o dom de me fazer chorar
EXTD=
EXTT0=
EXTT1=
EXTT2=
EXTT3=
EXTT4=
EXTT5=
EXTT6=
EXTT7=
EXTT8=
EXTT9=
EXTT10=
EXTT11=
EXTT12=
EXTT13=
EXTT14=
EXTT15=
EXTT16=
EXTT17=
EXTT18=
EXTT19=
PLAYORDER=
